<svg width="105" height="74" viewBox="0 0 105 74" fill="none" xmlns="http://www.w3.org/2000/svg">
<path d="M49.0557 71.0921C48.8749 71.8155 48.4575 72.4577 47.8698 72.9166C47.2821 73.3755 46.5579 73.6249 45.8123 73.625C45.5305 73.6263 45.2497 73.5926 44.9763 73.5247L31.6013 70.1809C31.229 70.0874 30.8755 69.9305 30.5564 69.717L20.5251 63.0295C19.7874 62.5373 19.2754 61.7722 19.1018 60.9025C18.9282 60.0329 19.1072 59.1298 19.5993 58.3921C20.0915 57.6544 20.8566 57.1424 21.7263 56.9688C22.596 56.7952 23.499 56.9741 24.2367 57.4663L33.7831 63.832L46.598 67.0378C47.0262 67.1416 47.4296 67.329 47.7851 67.5892C48.1407 67.8494 48.4412 68.1773 48.6696 68.5541C48.898 68.9308 49.0497 69.349 49.1159 69.7846C49.1822 70.2201 49.1617 70.6645 49.0557 71.0921ZM104.516 30.7748C104.242 31.6082 103.805 32.3789 103.231 33.0425C102.657 33.7061 101.957 34.2494 101.172 34.641L91.2747 39.5898L68.253 62.6157C67.8444 63.0239 67.337 63.3193 66.7804 63.4731C66.2237 63.6269 65.6366 63.6339 65.0764 63.4934L38.3264 56.8059C37.9196 56.7038 37.5355 56.5266 37.1937 56.2835L13.9881 39.7152L3.83983 34.641C2.25379 33.8482 1.04755 32.4579 0.486356 30.7759C-0.074842 29.0938 0.0549435 27.2578 0.847174 25.6714L11.2337 4.90257C12.0266 3.31653 13.4169 2.11029 15.0989 1.54909C16.7809 0.987893 18.617 1.11768 20.2033 1.90991L29.4237 6.50757L51.576 0.179519C52.177 0.00762453 52.8141 0.00762453 53.4151 0.179519L75.5675 6.50757L84.7878 1.90991C86.3742 1.11768 88.2102 0.987893 89.8923 1.54909C91.5743 2.11029 92.9646 3.31653 93.7575 4.90257L104.144 25.6714C104.54 26.4553 104.777 27.3099 104.841 28.1859C104.905 29.0619 104.794 29.9418 104.516 30.7748ZM85.2142 36.1833L73.8412 13.4375H60.5415L42.4685 30.9922C47.76 34.3735 56.0567 35.3056 63.5007 27.8031C64.0821 27.2171 64.8596 26.8668 65.6838 26.8198C66.5079 26.7727 67.3203 27.0321 67.9646 27.5481L82.3469 39.0715L85.2142 36.1833ZM6.82831 28.6599L14.2222 32.3589L24.6087 11.5901L17.2148 7.89104L6.82831 28.6599ZM77.5779 43.8071L65.996 34.5324C57.8288 41.2199 47.459 42.1018 38.8656 36.6222C38.0203 36.0845 37.3066 35.3637 36.7772 34.5132C36.2479 33.6626 35.9164 32.704 35.8072 31.7081C35.6981 30.7122 35.8141 29.7045 36.1467 28.7595C36.4793 27.8145 37.0199 26.9563 37.7287 26.2482C37.7388 26.2361 37.75 26.2249 37.7622 26.2148L56.5123 8.02897L52.4998 6.88374L31.4258 12.9067L19.986 35.7821L40.55 50.4737L64.8507 56.5468L77.5779 43.8071ZM98.1587 28.6599L87.7847 7.89104L80.3908 11.5901L90.7773 32.3589L98.1587 28.6599Z" fill="white"/>
</svg>
